<mxfile host="app.diagrams.net" modified="2023-12-03T17:52:31.288Z" agent="Mozilla/5.0 (Windows NT 10.0; Win64; x64) AppleWebKit/537.36 (KHTML, like Gecko) Chrome/119.0.0.0 Safari/537.36" etag="TQPtc7eqks73ey571qgg" version="22.1.5" type="github">
  <diagram name="Page-1" id="Bn1vo7eeLEBdRa7x1ML-">
    <mxGraphModel dx="1050" dy="581" grid="1" gridSize="10" guides="1" tooltips="1" connect="1" arrows="1" fold="1" page="1" pageScale="1" pageWidth="827" pageHeight="1169" math="0" shadow="0">
      <root>
        <mxCell id="0" />
        <mxCell id="1" parent="0" />
        <mxCell id="wcn9vbK_a_X1ej-pPsOE-6" style="edgeStyle=orthogonalEdgeStyle;rounded=0;orthogonalLoop=1;jettySize=auto;html=1;exitX=0.5;exitY=1;exitDx=0;exitDy=0;entryX=0.5;entryY=0;entryDx=0;entryDy=0;" edge="1" parent="1" source="wcn9vbK_a_X1ej-pPsOE-1" target="wcn9vbK_a_X1ej-pPsOE-2">
          <mxGeometry relative="1" as="geometry" />
        </mxCell>
        <mxCell id="wcn9vbK_a_X1ej-pPsOE-1" value="Material app" style="rounded=0;whiteSpace=wrap;html=1;" vertex="1" parent="1">
          <mxGeometry x="350" y="60" width="120" height="60" as="geometry" />
        </mxCell>
        <mxCell id="wcn9vbK_a_X1ej-pPsOE-7" style="edgeStyle=orthogonalEdgeStyle;rounded=0;orthogonalLoop=1;jettySize=auto;html=1;exitX=0;exitY=0.5;exitDx=0;exitDy=0;entryX=0.5;entryY=0;entryDx=0;entryDy=0;" edge="1" parent="1" source="wcn9vbK_a_X1ej-pPsOE-2" target="wcn9vbK_a_X1ej-pPsOE-3">
          <mxGeometry relative="1" as="geometry" />
        </mxCell>
        <mxCell id="wcn9vbK_a_X1ej-pPsOE-2" value="scaffold" style="rounded=1;whiteSpace=wrap;html=1;" vertex="1" parent="1">
          <mxGeometry x="350" y="180" width="120" height="50" as="geometry" />
        </mxCell>
        <mxCell id="wcn9vbK_a_X1ej-pPsOE-3" value="color" style="rounded=1;whiteSpace=wrap;html=1;" vertex="1" parent="1">
          <mxGeometry x="190" y="300" width="120" height="60" as="geometry" />
        </mxCell>
        <mxCell id="wcn9vbK_a_X1ej-pPsOE-15" style="edgeStyle=orthogonalEdgeStyle;rounded=0;orthogonalLoop=1;jettySize=auto;html=1;exitX=0.25;exitY=1;exitDx=0;exitDy=0;entryX=0.5;entryY=0;entryDx=0;entryDy=0;" edge="1" parent="1" source="wcn9vbK_a_X1ej-pPsOE-8" target="wcn9vbK_a_X1ej-pPsOE-12">
          <mxGeometry relative="1" as="geometry" />
        </mxCell>
        <mxCell id="wcn9vbK_a_X1ej-pPsOE-16" style="edgeStyle=orthogonalEdgeStyle;rounded=0;orthogonalLoop=1;jettySize=auto;html=1;exitX=0.75;exitY=1;exitDx=0;exitDy=0;entryX=0.5;entryY=0;entryDx=0;entryDy=0;" edge="1" parent="1" source="wcn9vbK_a_X1ej-pPsOE-8" target="wcn9vbK_a_X1ej-pPsOE-13">
          <mxGeometry relative="1" as="geometry" />
        </mxCell>
        <mxCell id="wcn9vbK_a_X1ej-pPsOE-8" value="appBar" style="rounded=1;whiteSpace=wrap;html=1;" vertex="1" parent="1">
          <mxGeometry x="350" y="300" width="120" height="60" as="geometry" />
        </mxCell>
        <mxCell id="wcn9vbK_a_X1ej-pPsOE-9" style="edgeStyle=orthogonalEdgeStyle;rounded=0;orthogonalLoop=1;jettySize=auto;html=1;exitX=0.5;exitY=1;exitDx=0;exitDy=0;" edge="1" parent="1" source="wcn9vbK_a_X1ej-pPsOE-2" target="wcn9vbK_a_X1ej-pPsOE-8">
          <mxGeometry relative="1" as="geometry" />
        </mxCell>
        <mxCell id="wcn9vbK_a_X1ej-pPsOE-18" style="edgeStyle=orthogonalEdgeStyle;rounded=0;orthogonalLoop=1;jettySize=auto;html=1;exitX=0.5;exitY=1;exitDx=0;exitDy=0;entryX=0.5;entryY=0;entryDx=0;entryDy=0;" edge="1" parent="1" source="wcn9vbK_a_X1ej-pPsOE-10" target="wcn9vbK_a_X1ej-pPsOE-17">
          <mxGeometry relative="1" as="geometry" />
        </mxCell>
        <mxCell id="wcn9vbK_a_X1ej-pPsOE-10" value="center" style="rounded=1;whiteSpace=wrap;html=1;" vertex="1" parent="1">
          <mxGeometry x="620" y="300" width="120" height="60" as="geometry" />
        </mxCell>
        <mxCell id="wcn9vbK_a_X1ej-pPsOE-11" style="edgeStyle=orthogonalEdgeStyle;rounded=0;orthogonalLoop=1;jettySize=auto;html=1;exitX=1;exitY=0.5;exitDx=0;exitDy=0;entryX=0.567;entryY=-0.057;entryDx=0;entryDy=0;entryPerimeter=0;" edge="1" parent="1" source="wcn9vbK_a_X1ej-pPsOE-2" target="wcn9vbK_a_X1ej-pPsOE-10">
          <mxGeometry relative="1" as="geometry" />
        </mxCell>
        <mxCell id="wcn9vbK_a_X1ej-pPsOE-12" value="title" style="rounded=1;whiteSpace=wrap;html=1;" vertex="1" parent="1">
          <mxGeometry x="280" y="400" width="120" height="60" as="geometry" />
        </mxCell>
        <mxCell id="wcn9vbK_a_X1ej-pPsOE-13" value="color" style="rounded=1;whiteSpace=wrap;html=1;" vertex="1" parent="1">
          <mxGeometry x="430" y="400" width="120" height="60" as="geometry" />
        </mxCell>
        <mxCell id="wcn9vbK_a_X1ej-pPsOE-20" style="edgeStyle=orthogonalEdgeStyle;rounded=0;orthogonalLoop=1;jettySize=auto;html=1;exitX=0.5;exitY=1;exitDx=0;exitDy=0;entryX=0.5;entryY=0;entryDx=0;entryDy=0;" edge="1" parent="1" source="wcn9vbK_a_X1ej-pPsOE-17" target="wcn9vbK_a_X1ej-pPsOE-19">
          <mxGeometry relative="1" as="geometry" />
        </mxCell>
        <mxCell id="wcn9vbK_a_X1ej-pPsOE-17" value="image" style="rounded=1;whiteSpace=wrap;html=1;" vertex="1" parent="1">
          <mxGeometry x="620" y="400" width="120" height="60" as="geometry" />
        </mxCell>
        <mxCell id="wcn9vbK_a_X1ej-pPsOE-19" value="networkimage" style="rounded=1;whiteSpace=wrap;html=1;" vertex="1" parent="1">
          <mxGeometry x="620" y="490" width="120" height="60" as="geometry" />
        </mxCell>
      </root>
    </mxGraphModel>
  </diagram>
</mxfile>
